<?xml version="1.0" encoding="UTF-8"?>
<svg version="1.1" xmlns="http://www.w3.org/2000/svg" width="435" height="378">
<path d="M0 0 C143.55 0 287.1 0 435 0 C435 124.74 435 249.48 435 378 C291.45 378 147.9 378 0 378 C0 253.26 0 128.52 0 0 Z " fill="#EBE5C7" transform="translate(0,0)"/>
<path d="M0 0 C135.3 0 270.6 0 410 0 C410 109.89 410 219.78 410 333 C402.08 333 394.16 333 386 333 C386 230.7 386 128.4 386 23 C266.54 23 147.08 23 24 23 C24 125.3 24 227.6 24 333 C16.08 333 8.16 333 0 333 C0 223.11 0 113.22 0 0 Z " fill="#F86723" transform="translate(16,12)"/>
<path d="M0 0 C1.16931564 0.00707474 2.33863129 0.01414948 3.54338074 0.0214386 C7.27306455 0.04939631 11.00123972 0.11214253 14.73046875 0.17578125 C17.26104601 0.2008621 19.79164683 0.22367564 22.32226562 0.24414062 C28.52134688 0.29922779 34.71955003 0.38287003 40.91796875 0.48828125 C40.65242187 0.98457031 40.386875 1.48085937 40.11328125 1.9921875 C39.76007813 2.67152344 39.406875 3.35085937 39.04296875 4.05078125 C38.69492187 4.71207031 38.346875 5.37335938 37.98828125 6.0546875 C32.46709785 18.60832714 34.8013377 33.12931503 36.58984375 46.3203125 C36.77058025 47.70183438 36.95088641 49.08341261 37.13079834 50.46504211 C39.13096561 65.64678992 41.44432197 80.78374239 43.81357193 95.91157532 C44.17477128 98.21924194 44.53446932 100.52713879 44.89389038 102.83508301 C52.74510028 153.47722459 52.74510028 153.47722459 63.23876953 203.62158203 C63.92800976 206.53066138 64.5948951 209.44419454 65.2578125 212.359375 C69.05595354 228.92464075 74.30838249 244.26910874 81.91796875 259.48828125 C62.44796875 259.48828125 42.97796875 259.48828125 22.91796875 259.48828125 C23.24796875 255.52828125 23.57796875 251.56828125 23.91796875 247.48828125 C24.33043695 236.97097465 23.66989368 226.69963689 22.42871094 216.26147461 C22.16864759 214.05653675 21.92920181 211.85001568 21.69140625 209.64257812 C20.21224107 196.4959911 18.01787872 183.01248584 12.73046875 170.80078125 C12.43640137 170.10782959 12.14233398 169.41487793 11.83935547 168.70092773 C6.49417098 156.57509795 -1.14844266 145.91059413 -10.83984375 136.84375 C-12.08203125 135.48828125 -12.08203125 135.48828125 -12.08203125 133.48828125 C-12.61957031 133.23691406 -13.15710938 132.98554688 -13.7109375 132.7265625 C-16.60392505 131.21572716 -19.2786248 129.44771459 -22.01953125 127.67578125 C-35.12113789 119.58263689 -45.8919003 117.76646933 -61.08203125 118.48828125 C-61.19675781 119.28363281 -61.31148437 120.07898438 -61.4296875 120.8984375 C-61.92348032 123.61577643 -62.49934597 126.19665871 -63.203125 128.859375 C-71.73383247 161.35499751 -72.72820368 199.10976866 -63.08203125 231.48828125 C-62.77265625 232.61363281 -62.46328125 233.73898437 -62.14453125 234.8984375 C-60.1390521 241.90925838 -57.45389315 248.35578178 -54.25390625 254.90625 C-53.08203125 257.48828125 -53.08203125 257.48828125 -53.08203125 259.48828125 C-69.58203125 259.48828125 -86.08203125 259.48828125 -103.08203125 259.48828125 C-102.60765625 255.42515625 -102.13328125 251.36203125 -101.64453125 247.17578125 C-100.33802955 235.07834086 -99.84251307 223.0925918 -99.68151855 210.93222046 C-99.3161908 183.70656172 -96.92526484 157.66173954 -89.81640625 131.25537109 C-89.031066 128.29624663 -88.30329159 125.32596665 -87.578125 122.3515625 C-86.32459402 117.31832865 -84.87658005 112.39799965 -83.20703125 107.48828125 C-82.94438477 106.71339355 -82.68173828 105.93850586 -82.41113281 105.14013672 C-69.14125511 66.48055969 -45.19244437 34.61428574 -17.08203125 5.48828125 C-16.44168945 4.60575684 -15.80134766 3.72323242 -15.14160156 2.81396484 C-10.39160222 -0.79667143 -5.80317811 -0.13212067 0 0 Z " fill="#F94639" transform="translate(312.08203125,64.51171875)"/>
<path d="M0 0 C22.77 0 45.54 0 69 0 C67.62940827 3.42647934 66.31143415 6.3181385 64.5625 9.5 C58.66072636 21.41045594 58.57082196 33.57473113 58.64355469 46.54321289 C58.64276219 48.37785438 58.64065996 50.2124957 58.63735962 52.0471344 C58.63226069 56.99337508 58.64569074 61.93940486 58.66288662 66.88561177 C58.67801754 72.08229987 58.67675084 77.27898631 58.67755127 82.47569275 C58.68123419 91.19843097 58.69615187 99.92109004 58.71875 108.64379883 C58.74762896 119.81304702 58.7579766 130.98223162 58.7624321 142.1515131 C58.76642372 151.79032368 58.77892169 161.42912066 58.79277897 171.0679214 C58.79686049 174.14919869 58.79979491 177.23047551 58.80257416 180.31175423 C58.80749973 185.16687173 58.81775719 190.02195161 58.83201218 194.8770504 C58.83650002 196.65066818 58.83936541 198.42429098 58.84041977 200.19791412 C57.71860935 220.9430383 57.71860935 220.9430383 65.875 239 C76.17893327 243.84890977 90.06351967 241.3778322 100.55078125 238.265625 C105.51821092 236.44292148 109.72458424 234.09653274 114 231 C114.598125 230.59523438 115.19625 230.19046875 115.8125 229.7734375 C125.22990358 222.66678573 131.42529613 210.81112862 136.625 200.44921875 C138 198 138 198 140 197 C146.10492115 207.49283322 145.19266977 219.69639182 142.4375 231.1875 C139.91605012 240.68215178 135.6859351 253.66754419 127 259 C122.6133445 259.87362296 118.29380837 259.75810062 113.83447266 259.68115234 C112.49370398 259.6794584 111.15292975 259.68041284 109.81216431 259.68380737 C106.18404473 259.68552483 102.55712189 259.650318 98.9292798 259.60836363 C95.13369134 259.5707865 91.33807366 259.56732582 87.54232788 259.56021118 C80.35990569 259.54158263 73.17803324 259.49237328 65.99585283 259.43211424 C57.81698704 259.36498653 49.63809462 259.33204448 41.45902181 259.30194163 C24.63902636 259.23927187 7.8195834 259.13377645 -9 259 C-5.6241336 255.57055545 -2.08605488 252.73303023 1.78125 249.87890625 C6.13356004 246.19323525 8.56345615 242.25315578 10.6875 237 C11.10386719 235.989375 11.52023438 234.97875 11.94921875 233.9375 C13.860331 228.5949111 14.14541954 223.61844153 14.13371277 217.98040771 C14.13597833 217.17802587 14.13824388 216.37564402 14.14057809 215.54894757 C14.14690301 212.86302068 14.14608969 210.17714445 14.14526367 207.49121094 C14.14825614 205.56421341 14.15165887 203.63721648 14.15544128 201.71022034 C14.16427744 196.47660475 14.16661926 191.24300552 14.16725707 186.0093832 C14.16796789 182.73832212 14.17010284 179.46726519 14.17275429 176.19620514 C14.18200704 164.78070309 14.18608934 153.36521271 14.18530273 141.94970703 C14.18470223 131.31553556 14.19524883 120.68141486 14.2110464 110.04725623 C14.22413206 100.91248071 14.22948619 91.77772176 14.22884732 82.64293694 C14.2285926 77.18938681 14.23142952 71.73588179 14.24202538 66.282341 C14.25172337 61.15072789 14.25177384 56.01920285 14.24450874 50.88758659 C14.24346496 49.00789448 14.24581352 47.12819683 14.2518692 45.24851418 C14.25962152 42.67474912 14.25492299 40.10128572 14.24723816 37.52752686 C14.25238172 36.79063621 14.25752529 36.05374557 14.26282471 35.29452491 C14.18685881 23.71387885 10.54943794 13.76949958 3.3671875 4.7265625 C2.16630232 3.21001607 1.07303141 1.60954711 0 0 Z " fill="#FD8832" transform="translate(58,65)"/>
<path d="M0 0 C0.33 0 0.66 0 1 0 C2.20981562 6.0239059 3.41823347 12.04809012 4.62548828 18.07250977 C5.03430617 20.11164483 5.44347231 22.15071012 5.85302734 24.18969727 C8.35527486 36.64867662 10.80588538 49.11540113 13.16381836 61.60253906 C14.00630502 66.05633003 14.88940749 70.50119328 15.80078125 74.94140625 C16.01969315 77.20349589 15.67936079 78.84461792 15 81 C14.34257812 80.34644531 14.34257812 80.34644531 13.671875 79.6796875 C5.47873579 71.98612995 -4.18350291 67.72371938 -15 65 C-15.92232422 64.7215625 -15.92232422 64.7215625 -16.86328125 64.4375 C-25.13608909 62.74361613 -33.94810512 63.77878762 -42 66 C-39.46511291 45.05601488 -18.47155556 22.06441015 -5.31933594 6.57421875 C-4.08027939 5.09578858 -2.88601656 3.58014315 -1.6953125 2.0625 C-1.13585937 1.381875 -0.57640625 0.70125 0 0 Z " fill="#EBE3C5" transform="translate(301,99)"/>
<path d="M0 0 C-0.165 0.721875 -0.33 1.44375 -0.5 2.1875 C-1.09930961 4.95567329 -1.09930961 4.95567329 -0.875 7.625 C-1 10 -1 10 -2.125 11.8125 C-4.77535957 13.49106106 -6.93246424 13.20450238 -10 13 C-10 13.66 -10 14.32 -10 15 C-9.0925 14.938125 -8.185 14.87625 -7.25 14.8125 C-3.67124653 15.01896655 -2.37869491 15.34684029 0 18 C0.5 20.5 0.5 20.5 0 23 C-1.80161446 25.1769508 -3.17479911 25.89562676 -5.9765625 26.25 C-8.125 26.3125 -8.125 26.3125 -12 26 C-12.66 25.34 -13.32 24.68 -14 24 C-14 23.01 -14 22.02 -14 21 C-9.545 21.99 -9.545 21.99 -5 23 C-5 21.68 -5 20.36 -5 19 C-5.94875 19.04125 -6.8975 19.0825 -7.875 19.125 C-11 19 -11 19 -13 17 C-13.04080783 15.00041636 -13.04254356 12.99954746 -13 11 C-13.33 10.67 -13.66 10.34 -14 10 C-14.46822742 4.61538462 -14.46822742 4.61538462 -12.76953125 2.3828125 C-10.6646402 0.73793075 -9.04504348 0.28267775 -6.4375 -0.25 C-5.65246094 -0.42015625 -4.86742187 -0.5903125 -4.05859375 -0.765625 C-2 -1 -2 -1 0 0 Z " fill="#FDAC3C" transform="translate(349,351)"/>
<path d="M0 0 C0 1.32 0 2.64 0 4 C-0.66 4 -1.32 4 -2 4 C-1.6596875 5.6396875 -1.6596875 5.6396875 -1.3125 7.3125 C-1 11 -1 11 -2.125 12.9375 C-4.53579338 14.30361625 -6.27294446 14.22111261 -9 14 C-9 14.66 -9 15.32 -9 16 C-7.88625 16.12375 -6.7725 16.2475 -5.625 16.375 C-2 17 -2 17 0 19 C0.375 21.4375 0.375 21.4375 0 24 C-1.80161446 26.1769508 -3.17479911 26.89562676 -5.9765625 27.25 C-8.125 27.3125 -8.125 27.3125 -12 27 C-12.66 26.34 -13.32 25.68 -14 25 C-14 24.01 -14 23.02 -14 22 C-11.03 22.33 -8.06 22.66 -5 23 C-4.67 22.01 -4.34 21.02 -4 20 C-5.670625 20.061875 -5.670625 20.061875 -7.375 20.125 C-11 20 -11 20 -13 18 C-13.04649906 16.00054061 -13.03772913 13.9996441 -13 12 C-13.226875 10.783125 -13.45375 9.56625 -13.6875 8.3125 C-14 5 -14 5 -12.8046875 3.3671875 C-10.67320757 1.75242997 -9.05317204 1.31667402 -6.4375 0.8125 C-5.65246094 0.65394531 -4.86742187 0.49539063 -4.05859375 0.33203125 C-2 0 -2 0 0 0 Z " fill="#FCAD40" transform="translate(252,350)"/>
<path d="M0 0 C0 0.99 0 1.98 0 3 C-0.99 3.495 -0.99 3.495 -2 4 C-1.67 4.33 -1.34 4.66 -1 5 C-0.54124748 10.27565392 -0.54124748 10.27565392 -2.1875 12.875 C-4.56036279 14.34781139 -6.25913944 14.22223194 -9 14 C-9 14.66 -9 15.32 -9 16 C-8.071875 15.938125 -7.14375 15.87625 -6.1875 15.8125 C-3 16 -3 16 -1.125 17.1875 C0.42229478 19.68036381 0.50405716 21.11967335 0 24 C-2.39081611 26.77334669 -3.899597 26.98943126 -7.5625 27.375 C-11 27 -11 27 -12.9375 25.625 C-14 24 -14 24 -14 22 C-11.03 22.33 -8.06 22.66 -5 23 C-5 22.01 -5 21.02 -5 20 C-7.31 19.67 -9.62 19.34 -12 19 C-12.82638376 16.10765685 -13 14.11257569 -13 11 C-13.061875 9.80375 -13.12375 8.6075 -13.1875 7.375 C-13.0946875 5.704375 -13.0946875 5.704375 -13 4 C-10.34531286 2.23020858 -8.92500069 1.57859829 -5.9375 0.875 C-5.24527344 0.70742188 -4.55304688 0.53984375 -3.83984375 0.3671875 C-2 0 -2 0 0 0 Z " fill="#FDAA38" transform="translate(298,350)"/>
<path d="M0 0 C3.4375 0.5 3.4375 0.5 5.125 1.69140625 C7.78960245 5.36316499 7.0120557 10.18760439 6.4375 14.5 C4.8125 17.1875 4.8125 17.1875 2.4375 18.5 C-0.83120461 18.9669578 -2.65831759 19.15475278 -5.375 17.1875 C-7.98136104 13.48372378 -7.94003659 9.87942449 -7.5625 5.5 C-5.44869499 1.52604659 -4.50117926 0.63174446 0 0 Z " fill="#FDAA38" transform="translate(357.5625,351.5)"/>
<path d="M0 0 C1.32 0 2.64 0 4 0 C4.66 3.96 5.32 7.92 6 12 C6.66 8.04 7.32 4.08 8 0 C9.32 0 10.64 0 12 0 C12.66 3.63 13.32 7.26 14 11 C14.66 7.37 15.32 3.74 16 0 C17.32 0 18.64 0 20 0 C19.69112547 2.43800966 19.37805338 4.87535367 19.0625 7.3125 C18.97548828 8.00279297 18.88847656 8.69308594 18.79882812 9.40429688 C18.40789865 12.40142288 17.9584996 15.12450119 17 18 C15.35 18 13.7 18 12 18 C11.67 15.03 11.34 12.06 11 9 C10.34 9 9.68 9 9 9 C8.67 11.97 8.34 14.94 8 18 C6.35 18 4.7 18 3 18 C2.49645133 15.56318413 1.99703244 13.12564561 1.5 10.6875 C1.35691406 9.99720703 1.21382813 9.30691406 1.06640625 8.59570312 C0.47374956 5.67475227 0 2.98891878 0 0 Z " fill="#FDA936" transform="translate(63,352)"/>
<path d="M0 0 C1.65 0 3.3 0 5 0 C5.33 2.31 5.66 4.62 6 7 C6.78375 6.95875 7.5675 6.9175 8.375 6.875 C11 7 11 7 13 9 C13.14507695 11.74485593 13.18652423 14.38480543 13.125 17.125 C13.11597656 17.87910156 13.10695313 18.63320313 13.09765625 19.41015625 C13.0740687 21.27357254 13.03819719 23.13682593 13 25 C11.68 25 10.36 25 9 25 C9 20.05 9 15.1 9 10 C8.01 10.33 7.02 10.66 6 11 C5.67 15.62 5.34 20.24 5 25 C3.35 25 1.7 25 0 25 C0 16.75 0 8.5 0 0 Z " fill="#FCAD40" transform="translate(85,345)"/>
<path d="M0 0 C1.32 0 2.64 0 4 0 C4.33 2.64 4.66 5.28 5 8 C5.33 7.67 5.66 7.34 6 7 C8.4375 6.8125 8.4375 6.8125 11 7 C13 9 13 9 13.1953125 12.6953125 C13.182009 14.17200108 13.15814835 15.64862358 13.125 17.125 C13.11597656 17.87910156 13.10695312 18.63320313 13.09765625 19.41015625 C13.0740687 21.27357254 13.03819719 23.13682593 13 25 C11.35 25 9.7 25 8 25 C8 20.05 8 15.1 8 10 C7.01 10.66 6.02 11.32 5 12 C4.41407366 15.11610554 4.41407366 15.11610554 4.3125 18.625 C4.24675781 19.81351562 4.18101562 21.00203125 4.11328125 22.2265625 C4.07589844 23.14179688 4.03851563 24.05703125 4 25 C2.68 25 1.36 25 0 25 C0 16.75 0 8.5 0 0 Z " fill="#FEA834" transform="translate(161,345)"/>
<path d="M0 0 C1.45742463 -0.08096803 2.91612807 -0.13917774 4.375 -0.1875 C5.18710937 -0.22230469 5.99921875 -0.25710938 6.8359375 -0.29296875 C7.55007813 -0.19628906 8.26421875 -0.09960938 9 0 C11.45391569 3.68087353 11.22802759 6.44355588 11.125 10.6875 C11.11597656 11.38939453 11.10695313 12.09128906 11.09765625 12.81445312 C11.07413704 14.54311525 11.03826713 16.27160145 11 18 C10.360625 17.814375 9.72125 17.62875 9.0625 17.4375 C8.0415625 17.2209375 8.0415625 17.2209375 7 17 C6.67 17.33 6.34 17.66 6 18 C3.0625 18.25 3.0625 18.25 0 18 C-2.15502531 14.76746204 -2.46856135 13.74849077 -2 10 C-0.875 8.1875 -0.875 8.1875 1 7 C4.1875 6.8125 4.1875 6.8125 7 7 C6.67 6.01 6.34 5.02 6 4 C3.03 3.505 3.03 3.505 0 3 C0 2.01 0 1.02 0 0 Z " fill="#FDAA39" transform="translate(271,352)"/>
<path d="M0 0 C2.475 0.495 2.475 0.495 5 1 C5.33 0.67 5.66 0.34 6 0 C8.4375 -0.25 8.4375 -0.25 11 0 C13.45391569 3.68087353 13.22802759 6.44355588 13.125 10.6875 C13.11597656 11.38939453 13.10695312 12.09128906 13.09765625 12.81445312 C13.07413704 14.54311525 13.03826713 16.27160145 13 18 C11.35 18 9.7 18 8 18 C8 13.05 8 8.1 8 3 C7.01 3.66 6.02 4.32 5 5 C4.41407366 8.11610554 4.41407366 8.11610554 4.3125 11.625 C4.24675781 12.81351562 4.18101562 14.00203125 4.11328125 15.2265625 C4.07589844 16.14179688 4.03851563 17.05703125 4 18 C2.68 18 1.36 18 0 18 C0 12.06 0 6.12 0 0 Z " fill="#FBB047" transform="translate(223,352)"/>
<path d="M0 0 C1.9375 1.0625 1.9375 1.0625 3 3 C3.1875 6.6875 3.1875 6.6875 3 10 C0.03 10 -2.94 10 -6 10 C-5.34 11.32 -4.68 12.64 -4 14 C-2.02 14 -0.04 14 2 14 C1.67 15.32 1.34 16.64 1 18 C-1.85418754 18.2339498 -4.20342775 18.41921004 -7 18 C-9.94271357 15.14924622 -10.20611468 12.37382717 -10.375 8.4375 C-10.26062411 5.69247863 -10.00032837 4.00079194 -8.9375 1.4375 C-5.93408933 -0.79083695 -3.62113687 -0.45264211 0 0 Z " fill="#FDAA39" transform="translate(111,352)"/>
<path d="M0 0 C1.45792884 -0.05399736 2.91642712 -0.09279177 4.375 -0.125 C5.18710938 -0.14820313 5.99921875 -0.17140625 6.8359375 -0.1953125 C9 0 9 0 11 2 C11.3063859 4.73434962 11.5113336 7.38279821 11.625 10.125 C11.66367188 10.87910156 11.70234375 11.63320313 11.7421875 12.41015625 C11.83651031 14.27303184 11.91934662 16.13648255 12 18 C11.195625 17.814375 10.39125 17.62875 9.5625 17.4375 C8.716875 17.293125 7.87125 17.14875 7 17 C6.67 17.33 6.34 17.66 6 18 C3.5625 18.1875 3.5625 18.1875 1 18 C-1 16 -1 16 -1.3125 13.0625 C-1 10 -1 10 0.1875 8.125 C2.56036279 6.65218861 4.25913944 6.77776806 7 7 C7 5.68 7 4.36 7 3 C4.69 3 2.38 3 0 3 C0 2.01 0 1.02 0 0 Z " fill="#FDA936" transform="translate(208,352)"/>
<path d="M0 0 C3.5 0.5 3.5 0.5 5.4375 2.125 C6.75066255 5.06030453 6.71691118 7.31863606 6.5 10.5 C3.53 10.5 0.56 10.5 -2.5 10.5 C-2.17 12.15 -1.84 13.8 -1.5 15.5 C0.48 15.17 2.46 14.84 4.5 14.5 C4.83 15.49 5.16 16.48 5.5 17.5 C2.4167365 19.04163175 -0.10878099 18.79747535 -3.5 18.5 C-5.5982941 16.39205857 -6.41699516 15.00779429 -6.8984375 12.0625 C-6.89070313 11.216875 -6.88296875 10.37125 -6.875 9.5 C-6.88273437 8.654375 -6.89046875 7.80875 -6.8984375 6.9375 C-6.14418512 2.32325014 -4.60158513 0.6573693 0 0 Z " fill="#FDA937" transform="translate(306.5,351.5)"/>
<path d="M0 0 C3.5 0.5 3.5 0.5 5.4375 2.125 C6.75066255 5.06030453 6.71691118 7.31863606 6.5 10.5 C3.53 10.5 0.56 10.5 -2.5 10.5 C-2.17 11.82 -1.84 13.14 -1.5 14.5 C0.48 14.5 2.46 14.5 4.5 14.5 C4.83 15.49 5.16 16.48 5.5 17.5 C2.4167365 19.04163175 -0.10878099 18.79747535 -3.5 18.5 C-5.5982941 16.39205857 -6.41699516 15.00779429 -6.8984375 12.0625 C-6.89070313 11.216875 -6.88296875 10.37125 -6.875 9.5 C-6.88273437 8.654375 -6.89046875 7.80875 -6.8984375 6.9375 C-6.14418512 2.32325014 -4.60158513 0.6573693 0 0 Z " fill="#FEA834" transform="translate(373.5,351.5)"/>
<path d="M0 0 C3.5 0.5 3.5 0.5 5.4375 2.125 C6.75066255 5.06030453 6.71691118 7.31863606 6.5 10.5 C3.53 10.5 0.56 10.5 -2.5 10.5 C-2.17 11.82 -1.84 13.14 -1.5 14.5 C0.48 14.5 2.46 14.5 4.5 14.5 C4.83 15.49 5.16 16.48 5.5 17.5 C2.4167365 19.04163175 -0.10878099 18.79747535 -3.5 18.5 C-5.5982941 16.39205857 -6.41699516 15.00779429 -6.8984375 12.0625 C-6.89070312 11.216875 -6.88296875 10.37125 -6.875 9.5 C-6.88273438 8.654375 -6.89046875 7.80875 -6.8984375 6.9375 C-6.14418512 2.32325014 -4.60158513 0.6573693 0 0 Z " fill="#FDAA37" transform="translate(183.5,351.5)"/>
<path d="M0 0 C3.5 0.5 3.5 0.5 5.4375 2.125 C6.75066255 5.06030453 6.71691118 7.31863606 6.5 10.5 C3.53 10.5 0.56 10.5 -2.5 10.5 C-2.17 11.82 -1.84 13.14 -1.5 14.5 C0.48 14.5 2.46 14.5 4.5 14.5 C4.83 15.49 5.16 16.48 5.5 17.5 C2.4167365 19.04163175 -0.10878099 18.79747535 -3.5 18.5 C-5.5982941 16.39205857 -6.41699516 15.00779429 -6.8984375 12.0625 C-6.89070313 11.216875 -6.88296875 10.37125 -6.875 9.5 C-6.88273437 8.654375 -6.89046875 7.80875 -6.8984375 6.9375 C-6.14418512 2.32325014 -4.60158513 0.6573693 0 0 Z " fill="#FDA937" transform="translate(134.5,351.5)"/>
<path d="M0 0 C1.32 0 2.64 0 4 0 C4 4.95 4 9.9 4 15 C4.99 14.67 5.98 14.34 7 14 C7.33 9.38 7.66 4.76 8 0 C9.32 0 10.64 0 12 0 C12 5.94 12 11.88 12 18 C10.68 17.67 9.36 17.34 8 17 C7.67 17.33 7.34 17.66 7 18 C4.5625 18.25 4.5625 18.25 2 18 C-0.45391569 14.31912647 -0.22802759 11.55644412 -0.125 7.3125 C-0.11597656 6.61060547 -0.10695312 5.90871094 -0.09765625 5.18554688 C-0.07413704 3.45688475 -0.03826713 1.72839855 0 0 Z " fill="#FDA935" transform="translate(254,352)"/>
<path d="M0 0 C2.01822917 0.06510417 4.03645833 0.13020833 6.0546875 0.1953125 C6.0546875 1.5153125 6.0546875 2.8353125 6.0546875 4.1953125 C3.0846875 3.7003125 3.0846875 3.7003125 0.0546875 3.1953125 C0.0546875 4.1853125 0.0546875 5.1753125 0.0546875 6.1953125 C1.0034375 6.4634375 1.9521875 6.7315625 2.9296875 7.0078125 C6.0546875 8.1953125 6.0546875 8.1953125 8.0546875 11.1953125 C7.7305506 14.51771574 7.44692447 15.80307553 5.0546875 18.1953125 C-1.26789315 18.53402218 -1.26789315 18.53402218 -3.9453125 17.1953125 C-3.4503125 15.7103125 -3.4503125 15.7103125 -2.9453125 14.1953125 C-0.9653125 14.1953125 1.0146875 14.1953125 3.0546875 14.1953125 C3.0546875 13.5353125 3.0546875 12.8753125 3.0546875 12.1953125 C1.08746742 10.81407287 -0.91399578 9.48043124 -2.9453125 8.1953125 C-3.9453125 7.1953125 -3.9453125 7.1953125 -4.1328125 4.7578125 C-3.90410521 1.63214619 -3.25878946 0.3271877 0 0 Z " fill="#FDAB3A" transform="translate(385.9453125,351.8046875)"/>
<path d="M0 0 C1.9453125 -0.29296875 1.9453125 -0.29296875 4.125 -0.1875 C5.40375 -0.125625 6.6825 -0.06375 8 0 C8 1.32 8 2.64 8 4 C5.03 3.505 5.03 3.505 2 3 C2 3.99 2 4.98 2 6 C2.94875 6.268125 3.8975 6.53625 4.875 6.8125 C8 8 8 8 10 11 C9.6758631 14.32240324 9.39223697 15.60776303 7 18 C0.67741935 18.33870968 0.67741935 18.33870968 -2 17 C-1.505 15.515 -1.505 15.515 -1 14 C0.98 14 2.96 14 5 14 C5 13.34 5 12.68 5 12 C4.030625 11.401875 3.06125 10.80375 2.0625 10.1875 C-1 8 -1 8 -2 5.4375 C-2 3 -2 3 0 0 Z " fill="#FDAA39" transform="translate(317,352)"/>
<path d="M0 0 C0.66 0.33 1.32 0.66 2 1 C2 1.99 2 2.98 2 4 C3.36125 3.9071875 3.36125 3.9071875 4.75 3.8125 C8.32875347 4.01896655 9.62130509 4.34684029 12 7 C12.5 9.5 12.5 9.5 12 12 C10.19838554 14.1769508 8.82520089 14.89562676 6.0234375 15.25 C3.875 15.3125 3.875 15.3125 0 15 C-0.66 14.34 -1.32 13.68 -2 13 C-2 12.01 -2 11.02 -2 10 C2.455 10.99 2.455 10.99 7 12 C7 10.68 7 9.36 7 8 C6.05125 8.04125 5.1025 8.0825 4.125 8.125 C1 8 1 8 -1 6 C-0.625 2.875 -0.625 2.875 0 0 Z " fill="#FCAF43" transform="translate(337,362)"/>
<path d="M0 0 C1.32 0 2.64 0 4 0 C4 1.32 4 2.64 4 4 C4.99 4 5.98 4 7 4 C7 4.99 7 5.98 7 7 C6.01 7 5.02 7 4 7 C4 10.96 4 14.92 4 19 C5.32 19.33 6.64 19.66 8 20 C7.67 20.66 7.34 21.32 7 22 C4.625 22.125 4.625 22.125 2 22 C0 20 0 20 -0.1953125 16.9609375 C-0.17210937 15.77757812 -0.14890625 14.59421875 -0.125 13.375 C-0.10695312 12.18648438 -0.08890625 10.99796875 -0.0703125 9.7734375 C-0.04710937 8.85820312 -0.02390625 7.94296875 0 7 C-0.66 7 -1.32 7 -2 7 C-2 6.01 -2 5.02 -2 4 C-1.34 4 -0.68 4 0 4 C0 2.68 0 1.36 0 0 Z " fill="#FEA62F" transform="translate(151,348)"/>
<path d="M0 0 C1.32 0 2.64 0 4 0 C4 7.26 4 14.52 4 22 C4.99 22.33 5.98 22.66 7 23 C7 23.66 7 24.32 7 25 C4.625 25.125 4.625 25.125 2 25 C0 23 0 23 -0.22705078 20.66162109 C-0.21657715 19.70852051 -0.20610352 18.75541992 -0.1953125 17.7734375 C-0.18886719 16.7421875 -0.18242187 15.7109375 -0.17578125 14.6484375 C-0.15902344 13.56820313 -0.14226562 12.48796875 -0.125 11.375 C-0.11597656 10.28703125 -0.10695312 9.1990625 -0.09765625 8.078125 C-0.07403409 5.38519848 -0.04109556 2.69270745 0 0 Z " fill="#FDAB3A" transform="translate(199,345)"/>
<path d="M0 0 C0.33 0.66 0.66 1.32 1 2 C2.36125 1.9071875 2.36125 1.9071875 3.75 1.8125 C7.32875347 2.01896655 8.62130509 2.34684029 11 5 C11.5 7.5 11.5 7.5 11 10 C9.19838554 12.1769508 7.82520089 12.89562676 5.0234375 13.25 C2.875 13.3125 2.875 13.3125 -1 13 C-1.66 12.34 -2.32 11.68 -3 11 C-3 10.01 -3 9.02 -3 8 C-0.03 8.33 2.94 8.66 6 9 C6.33 8.01 6.66 7.02 7 6 C5.329375 6.061875 5.329375 6.061875 3.625 6.125 C0 6 0 6 -2 4 C-2 3.01 -2 2.02 -2 1 C-1.34 0.67 -0.68 0.34 0 0 Z " fill="#FCAC3D" transform="translate(241,364)"/>
<path d="M0 0 C2.475 0.495 2.475 0.495 5 1 C7.23167185 0.63143136 7.23167185 0.63143136 9 0 C9 1.32 9 2.64 9 4 C8.01 4.33 7.02 4.66 6 5 C4.71553081 7.56893838 4.67022856 9.76576337 4.4375 12.625 C4.31181641 14.12933594 4.31181641 14.12933594 4.18359375 15.6640625 C4.12300781 16.43492187 4.06242187 17.20578125 4 18 C2.68 18 1.36 18 0 18 C0 12.06 0 6.12 0 0 Z " fill="#FDAA38" transform="translate(117,352)"/>
<path d="M0 0 C0 0.99 0 1.98 0 3 C-0.99 3.495 -0.99 3.495 -2 4 C-1.67 4.33 -1.34 4.66 -1 5 C-0.54124748 10.27565392 -0.54124748 10.27565392 -2.1875 12.875 C-4 14 -4 14 -9 14 C-9 10.37 -9 6.74 -9 3 C-2.25 0 -2.25 0 0 0 Z " fill="#FDAA37" transform="translate(298,350)"/>
<path d="M0 0 C3.69230769 0.69230769 3.69230769 0.69230769 5 2 C5.07319621 4.69654854 5.09242537 7.36691458 5.0625 10.0625 C5.05798828 10.82111328 5.05347656 11.57972656 5.04882812 12.36132812 C5.0370068 14.24091871 5.01907078 16.12046899 5 18 C3.35 18 1.7 18 0 18 C-0.19384179 15.18780295 -0.38036603 12.37545804 -0.5625 9.5625 C-0.61857422 8.76005859 -0.67464844 7.95761719 -0.73242188 7.13085938 C-0.8616295 5.08937889 -0.9351273 3.04453631 -1 1 C-0.67 0.67 -0.34 0.34 0 0 Z " fill="#FBB048" transform="translate(169,352)"/>
<path d="M0 0 C1.9375 0.75 1.9375 0.75 3.9375 1.75 C3.9375 4.41666667 3.9375 7.08333333 3.9375 9.75 C2.9375 10.75 2.9375 10.75 0 11 C-1.010625 10.9175 -2.02125 10.835 -3.0625 10.75 C-5.21752531 7.51746204 -5.53106135 6.49849077 -5.0625 2.75 C-3.47961664 0.37567497 -2.89043192 -0.35035538 0 0 Z " fill="#FCAE42" transform="translate(274.0625,359.25)"/>
<path d="M0 0 C2.475 0.495 2.475 0.495 5 1 C5.99 1 6.98 1 8 1 C8 1.66 8 2.32 8 3 C7.01 3.66 6.02 4.32 5 5 C4.41407366 8.11610554 4.41407366 8.11610554 4.3125 11.625 C4.24675781 12.81351562 4.18101562 14.00203125 4.11328125 15.2265625 C4.07589844 16.14179688 4.03851563 17.05703125 4 18 C2.68 18 1.36 18 0 18 C0 12.06 0 6.12 0 0 Z " fill="#FEA935" transform="translate(223,352)"/>
<path d="M0 0 C0 1.32 0 2.64 0 4 C-0.66 4 -1.32 4 -2 4 C-1.773125 5.093125 -1.54625 6.18625 -1.3125 7.3125 C-1 11 -1 11 -2.1875 12.9375 C-4 14 -4 14 -8 14 C-8 13.34 -8 12.68 -8 12 C-7.34 12 -6.68 12 -6 12 C-5.74984127 8.58357241 -5.74984127 8.58357241 -6 5 C-6.99 4.34 -7.98 3.68 -9 3 C-2.25 0 -2.25 0 0 0 Z " fill="#FDAA39" transform="translate(252,350)"/>
<path d="M0 0 C2.0625 0.4375 2.0625 0.4375 4 1 C4.0270043 2.45823212 4.04639787 3.91660675 4.0625 5.375 C4.07410156 6.18710937 4.08570313 6.99921875 4.09765625 7.8359375 C4 10 4 10 3 12 C1.68 11.67 0.36 11.34 -1 11 C-1.02688151 9.35425434 -1.04634123 7.70838587 -1.0625 6.0625 C-1.07410156 5.14597656 -1.08570313 4.22945313 -1.09765625 3.28515625 C-1 1 -1 1 0 0 Z " fill="#EBE4C3" transform="translate(356,355)"/>
<path d="M0 0 C0.99 0.33 1.98 0.66 3 1 C2.34 3.31 1.68 5.62 1 8 C1.99 8.33 2.98 8.66 4 9 C4 9.66 4 10.32 4 11 C1.625 11.125 1.625 11.125 -1 11 C-3 9 -3 9 -3.3125 6.0625 C-3 3 -3 3 -1.5 1.125 C-1.005 0.75375 -0.51 0.3825 0 0 Z " fill="#FDA936" transform="translate(210,359)"/>
<path d="M0 0 C0.5625 1.9375 0.5625 1.9375 1 4 C0 5 0 5 -2.3125 5.25 C-5.44076838 4.95899829 -6.68677733 4.05619793 -9 2 C-5.5647952 -0.29013653 -4.014669 -0.17842973 0 0 Z " fill="#EEDAAD" transform="translate(293,369)"/>
<path d="M0 0 C-0.33 1.32 -0.66 2.64 -1 4 C-4.62528568 4.20140476 -6.86501708 3.85776765 -10 2 C-10.33 2.66 -10.66 3.32 -11 4 C-11 3.01 -11 2.02 -11 1 C-7.32589215 -0.17571451 -3.83070817 -0.07366746 0 0 Z " fill="#EDDEB6" transform="translate(248,370)"/>
<path d="M0 0 C1.32 0 2.64 0 4 0 C4.33 1.65 4.66 3.3 5 5 C4.34 5 3.68 5 3 5 C3 6.32 3 7.64 3 9 C2.34 9 1.68 9 1 9 C-0.61949011 6.42786866 -1.04408751 5.32330841 -0.625 2.25 C-0.41875 1.5075 -0.2125 0.765 0 0 Z " fill="#FCAE42" transform="translate(71,352)"/>
<path d="M0 0 C4.455 0.99 4.455 0.99 9 2 C8.67 2.99 8.34 3.98 8 5 C5.125 5.125 5.125 5.125 2 5 C1.34 4.34 0.68 3.68 0 3 C0 2.01 0 1.02 0 0 Z " fill="#FDA937" transform="translate(335,372)"/>
<path d="M0 0 C0 1.32 0 2.64 0 4 C-3.62528568 4.20140476 -5.86501708 3.85776765 -9 2 C-9.33 2.66 -9.66 3.32 -10 4 C-10 3.01 -10 2.02 -10 1 C-6.61981469 -0.04005702 -3.5219721 -0.08004482 0 0 Z " fill="#EDDEB7" transform="translate(344,370)"/>
<path d="M0 0 C1.32 0 2.64 0 4 0 C4 1.65 4 3.3 4 5 C2.68 5.33 1.36 5.66 0 6 C-0.38218767 4.34385343 -0.71395102 2.67542976 -1 1 C-0.67 0.67 -0.34 0.34 0 0 Z " fill="#ECDFB8" transform="translate(243,355)"/>
<path d="M0 0 C1.98 0.495 1.98 0.495 4 1 C3.67 2.65 3.34 4.3 3 6 C1.68 5.67 0.36 5.34 -1 5 C-0.67 3.35 -0.34 1.7 0 0 Z " fill="#ECE0BA" transform="translate(340,355)"/>
<path d="M0 0 C1.32 0 2.64 0 4 0 C4 1.98 4 3.96 4 6 C2.68 6 1.36 6 0 6 C0 4.02 0 2.04 0 0 Z " fill="#EBE3C1" transform="translate(289,355)"/>
<path d="M0 0 C1.98 0.495 1.98 0.495 4 1 C4 2.32 4 3.64 4 5 C2.35 5 0.7 5 -1 5 C-0.67 3.35 -0.34 1.7 0 0 Z " fill="#EDDDB3" transform="translate(372,355)"/>
<path d="M0 0 C0.99 0 1.98 0 3 0 C3 1.65 3 3.3 3 5 C1.68 5 0.36 5 -1 5 C-0.67 3.35 -0.34 1.7 0 0 Z " fill="#EBE3C1" transform="translate(212,362)"/>
<path d="M0 0 C0.99 0 1.98 0 3 0 C3 1.65 3 3.3 3 5 C1.68 4.67 0.36 4.34 -1 4 C-0.67 2.68 -0.34 1.36 0 0 Z " fill="#ECE0BB" transform="translate(274,362)"/>
<path d="M0 0 C1.98 0.495 1.98 0.495 4 1 C4 1.99 4 2.98 4 4 C2.35 4 0.7 4 -1 4 C-0.67 2.68 -0.34 1.36 0 0 Z " fill="#EBE3C3" transform="translate(305,355)"/>
<path d="M0 0 C1.98 0.495 1.98 0.495 4 1 C4 1.99 4 2.98 4 4 C2.35 4 0.7 4 -1 4 C-0.67 2.68 -0.34 1.36 0 0 Z " fill="#ECE2C0" transform="translate(182,355)"/>
<path d="M0 0 C1.98 0.495 1.98 0.495 4 1 C4 1.99 4 2.98 4 4 C2.35 4 0.7 4 -1 4 C-0.67 2.68 -0.34 1.36 0 0 Z " fill="#ECE2C0" transform="translate(133,355)"/>
<path d="M0 0 C1.98 0.495 1.98 0.495 4 1 C4 1.99 4 2.98 4 4 C2.35 4 0.7 4 -1 4 C-0.67 2.68 -0.34 1.36 0 0 Z " fill="#EBE3C1" transform="translate(106,355)"/>
</svg>
