<?xml version="1.0" encoding="UTF-8"?>
<svg version="1.1" xmlns="http://www.w3.org/2000/svg" width="442" height="382">
<path d="M0 0 C145.86 0 291.72 0 442 0 C442 126.06 442 252.12 442 382 C296.14 382 150.28 382 0 382 C0 255.94 0 129.88 0 0 Z " fill="#111111" transform="translate(0,0)"/>
<path d="M0 0 C135.3 0 270.6 0 410 0 C410 109.89 410 219.78 410 333 C402.08 333 394.16 333 386 333 C386 230.7 386 128.4 386 23 C266.54 23 147.08 23 24 23 C24 125.3 24 227.6 24 333 C16.08 333 8.16 333 0 333 C0 223.11 0 113.22 0 0 Z " fill="#7725BC" transform="translate(17,11)"/>
<path d="M0 0 C1.16931564 0.00707474 2.33863129 0.01414948 3.54338074 0.0214386 C7.27306455 0.04939631 11.00123972 0.11214253 14.73046875 0.17578125 C17.26104601 0.2008621 19.79164683 0.22367564 22.32226562 0.24414062 C28.52134688 0.29922779 34.71955003 0.38287003 40.91796875 0.48828125 C40.39396484 1.50148438 40.39396484 1.50148438 39.859375 2.53515625 C39.40433594 3.4271875 38.94929687 4.31921875 38.48046875 5.23828125 C37.80177734 6.56085938 37.80177734 6.56085938 37.109375 7.91015625 C31.87800466 19.23049863 35.086444 34.1122371 36.61328125 45.98046875 C36.70077951 46.66929768 36.78827778 47.3581266 36.87842751 48.06782913 C38.90001709 63.95693869 41.27997286 79.78891243 43.7538681 95.61305618 C44.11218186 97.90624482 44.4689555 100.19966929 44.82550049 102.49313354 C47.94714119 122.54811559 51.20317545 142.57346673 54.79296875 162.55078125 C54.9677475 163.52980408 55.14252625 164.5088269 55.32260132 165.51751709 C57.63402453 178.39864164 60.33176026 191.16019393 63.3143158 203.90226746 C64.16454441 207.54459691 64.99814583 211.19069897 65.8321991 214.83676147 C69.57350191 230.97360895 74.33373262 244.319809 81.91796875 259.48828125 C62.44796875 259.48828125 42.97796875 259.48828125 22.91796875 259.48828125 C23.24796875 255.52828125 23.57796875 251.56828125 23.91796875 247.48828125 C24.58440283 235.63449479 23.57593466 224.10968652 22.04296875 212.36328125 C21.91240585 211.35761612 21.91240585 211.35761612 21.77920532 210.33163452 C20.80922556 202.96319573 19.68343713 195.70814675 17.91796875 188.48828125 C17.52738281 186.70744141 17.52738281 186.70744141 17.12890625 184.890625 C11.56826072 161.84252881 -2.46265159 139.93952444 -22.58203125 126.98828125 C-24.72612404 125.78062994 -26.89280669 124.61204785 -29.08203125 123.48828125 C-30.08492188 122.96234375 -31.0878125 122.43640625 -32.12109375 121.89453125 C-41.62035119 117.56575571 -50.87693975 118.00335082 -61.08203125 118.48828125 C-61.27152344 119.73738281 -61.27152344 119.73738281 -61.46484375 121.01171875 C-62.00618131 124.06102528 -62.6838487 127.03693662 -63.44042969 130.03881836 C-73.37602291 169.93614141 -73.35120153 218.07576554 -54.1484375 255.328125 C-53.08203125 257.48828125 -53.08203125 257.48828125 -53.08203125 259.48828125 C-69.58203125 259.48828125 -86.08203125 259.48828125 -103.08203125 259.48828125 C-102.75203125 256.51828125 -102.42203125 253.54828125 -102.08203125 250.48828125 C-100.61865764 237.30960808 -99.81435174 224.26997262 -99.67611694 211.01205444 C-99.47794171 194.00096056 -98.75035893 177.31726767 -96.08203125 160.48828125 C-95.92831055 159.50617676 -95.77458984 158.52407227 -95.61621094 157.51220703 C-93.81139646 146.26244186 -91.51991118 135.35904783 -88.08203125 124.48828125 C-87.78683594 123.49828125 -87.49164063 122.50828125 -87.1875 121.48828125 C-86.18510595 118.14412407 -85.13215172 114.8177602 -84.08203125 111.48828125 C-83.75259521 110.38516602 -83.75259521 110.38516602 -83.41650391 109.25976562 C-75.2363127 81.90015521 -61.27109255 56.49759412 -43.08203125 34.48828125 C-42.62892578 33.93897949 -42.17582031 33.38967773 -41.70898438 32.82373047 C-33.86961529 23.38476446 -25.60227236 14.3163472 -17.08203125 5.48828125 C-16.44168945 4.60575684 -15.80134766 3.72323242 -15.14160156 2.81396484 C-10.39160222 -0.79667143 -5.80317811 -0.13212067 0 0 Z " fill="#7825BF" transform="translate(313.08203125,63.51171875)"/>
<path d="M0 0 C22.77 0 45.54 0 69 0 C65.535 7.425 65.535 7.425 62 15 C58.71371364 25.73770118 58.57681241 35.81538917 58.62768555 46.92626953 C58.62525274 48.80194297 58.62152869 50.6776151 58.61662292 52.55328369 C58.60727861 57.61101273 58.61658399 62.66854605 58.62995505 67.72625971 C58.6413372 73.03819942 58.63715693 78.35013044 58.63520813 83.66207886 C58.63432744 92.57732307 58.64535969 101.49249091 58.66381836 110.40771484 C58.68499547 120.69438489 58.6884917 130.98094326 58.6822564 141.2676307 C58.67654969 151.19297063 58.68222298 161.1182715 58.69342995 171.0436058 C58.69805729 175.2546448 58.69895791 179.46565976 58.6968441 183.67670059 C58.69495187 188.63936395 58.7031366 193.60191464 58.7189045 198.56455231 C58.72312403 200.37890278 58.72401372 202.19326473 58.72121429 204.00761795 C58.32831793 221.87041042 58.32831793 221.87041042 65 238 C71.22669423 242.15112949 79.74565088 241.20905905 87 241 C87.72960937 240.99484375 88.45921875 240.9896875 89.2109375 240.984375 C100.75602679 240.38351533 111.97778083 234.04950563 120 226 C126.12876046 219.01654845 130.72521126 211.33014646 135.08227539 203.16796875 C137.80607761 198.09696119 137.80607761 198.09696119 140 197 C146.10492115 207.49283322 145.19266977 219.69639182 142.4375 231.1875 C139.91605012 240.68215178 135.6859351 253.66754419 127 259 C122.6133445 259.87362296 118.29380837 259.75810062 113.83447266 259.68115234 C112.49370398 259.6794584 111.15292975 259.68041284 109.81216431 259.68380737 C106.18404473 259.68552483 102.55712189 259.650318 98.9292798 259.60836363 C95.13369134 259.5707865 91.33807366 259.56732582 87.54232788 259.56021118 C80.35990569 259.54158263 73.17803324 259.49237328 65.99585283 259.43211424 C57.81698704 259.36498653 49.63809462 259.33204448 41.45902181 259.30194163 C24.63902636 259.23927187 7.8195834 259.13377645 -9 259 C-5.6241336 255.57055545 -2.08605488 252.73303023 1.78125 249.87890625 C6.13356004 246.19323525 8.56345615 242.25315578 10.6875 237 C11.10386719 235.989375 11.52023438 234.97875 11.94921875 233.9375 C13.84998378 228.62383717 14.1455011 223.67748149 14.13371277 218.0697937 C14.13597833 217.27699009 14.13824388 216.48418648 14.14057809 215.66735852 C14.14690246 213.01373847 14.14608972 210.36016971 14.14526367 207.70654297 C14.14825622 205.80249465 14.15165897 203.89844694 14.15544128 201.99440002 C14.1642778 196.82263161 14.16661931 191.65087975 14.16725707 186.47910452 C14.16796801 183.24555 14.17010321 180.01199968 14.17275429 176.7784462 C14.18200801 165.49031558 14.18608932 154.20219678 14.18530273 142.9140625 C14.1847026 132.40489874 14.19524175 121.89578641 14.2110464 111.38663566 C14.22414254 102.35543733 14.22948573 93.32425577 14.22884732 84.29304802 C14.22859286 78.90315005 14.23141544 73.51329776 14.24202538 68.12340927 C14.25174073 63.04924395 14.25176201 57.97516762 14.24450874 52.90099907 C14.24346702 51.04472282 14.24580113 49.18844093 14.2518692 47.3321743 C14.30053268 31.40636053 13.64686549 17.6693695 3.3671875 4.7265625 C2.16630232 3.21001607 1.07303141 1.60954711 0 0 Z " fill="#7825BF" transform="translate(59,64)"/>
<path d="M0 0 C1.62124792 2.94568538 2.45741981 5.59613885 3.08154297 8.89428711 C3.26868866 9.86728256 3.45583435 10.84027802 3.64865112 11.84275818 C3.84451813 12.89367142 4.04038513 13.94458466 4.2421875 15.02734375 C4.45183136 16.12607315 4.66147522 17.22480255 4.87747192 18.35682678 C5.54889334 21.88268494 6.21207858 25.41003486 6.875 28.9375 C7.31325632 31.24684843 7.75205299 33.55609439 8.19140625 35.86523438 C9.0538205 40.3997771 9.90918052 44.93557606 10.76074219 49.47216797 C11.56316946 53.73203618 12.39182662 57.98529187 13.24707031 62.23486328 C13.4391507 63.20138321 13.63123108 64.16790314 13.82913208 65.16371155 C14.18788508 66.96349763 14.55325655 68.76198219 14.92648315 70.55882263 C15.16227585 71.75089073 15.16227585 71.75089073 15.40283203 72.96704102 C15.54302765 73.65363297 15.68322327 74.34022491 15.82766724 75.04762268 C16.02217587 77.25123298 15.64641497 78.89717799 15 81 C14.34257812 80.34644531 14.34257812 80.34644531 13.671875 79.6796875 C5.47873579 71.98612995 -4.18350291 67.72371938 -15 65 C-15.92232422 64.7215625 -15.92232422 64.7215625 -16.86328125 64.4375 C-25.13608909 62.74361613 -33.94810512 63.77878762 -42 66 C-40.04555242 59.35904929 -37.37803049 53.46961225 -34 47.4375 C-33.5157959 46.56834961 -33.0315918 45.69919922 -32.53271484 44.80371094 C-24.75501988 31.06001313 -15.46635935 18.76651434 -5.37158203 6.65478516 C-3.55202555 4.45952816 -1.77228456 2.2335056 0 0 Z " fill="#121113" transform="translate(302,98)"/>
<path d="M0 0 C-0.165 0.886875 -0.33 1.77375 -0.5 2.6875 C-1.09286617 5.88564414 -1.09286617 5.88564414 -0.875 8.6875 C-1 11 -1 11 -2.125 12.8125 C-4.77535957 14.49106106 -6.93246424 14.20450238 -10 14 C-10 14.66 -10 15.32 -10 16 C-9.0925 15.938125 -8.185 15.87625 -7.25 15.8125 C-3.67124653 16.01896655 -2.37869491 16.34684029 0 19 C0.5 21.5 0.5 21.5 0 24 C-1.80161446 26.1769508 -3.17479911 26.89562676 -5.9765625 27.25 C-8.125 27.3125 -8.125 27.3125 -12 27 C-12.66 26.34 -13.32 25.68 -14 25 C-14 24.01 -14 23.02 -14 22 C-9.545 22.99 -9.545 22.99 -5 24 C-5 22.68 -5 21.36 -5 20 C-5.94875 20.04125 -6.8975 20.0825 -7.875 20.125 C-11 20 -11 20 -13 18 C-13.04080783 16.00041636 -13.04254356 13.99954746 -13 12 C-13.33 11.67 -13.66 11.34 -14 11 C-14.375 8.1875 -14.375 8.1875 -14 5 C-9.91909231 0.55901222 -5.81650826 0 0 0 Z " fill="#6B23A7" transform="translate(350,349)"/>
<path d="M0 0 C-0.08723378 1.77174819 -0.19541655 3.54247377 -0.3125 5.3125 C-0.37050781 6.29863281 -0.42851562 7.28476562 -0.48828125 8.30078125 C-1.05114345 11.26977196 -1.563253 12.26616079 -4 14 C-6.6875 14.1875 -6.6875 14.1875 -9 14 C-9 14.99 -9 15.98 -9 17 C-7.88625 16.95875 -6.7725 16.9175 -5.625 16.875 C-2 17 -2 17 0 19 C0.375 21.4375 0.375 21.4375 0 24 C-1.80161446 26.1769508 -3.17479911 26.89562676 -5.9765625 27.25 C-8.125 27.3125 -8.125 27.3125 -12 27 C-12.66 26.34 -13.32 25.68 -14 25 C-14 24.01 -14 23.02 -14 22 C-11.03 22.33 -8.06 22.66 -5 23 C-4.67 22.01 -4.34 21.02 -4 20 C-6.64 19.67 -9.28 19.34 -12 19 C-12.80914321 15.99361447 -13.3586495 13.02637358 -13.75 9.9375 C-13.86859375 9.08027344 -13.9871875 8.22304688 -14.109375 7.33984375 C-14 5 -14 5 -12.80078125 3.265625 C-10.67309607 1.77024539 -8.98486516 1.30350778 -6.4375 0.8125 C-5.65246094 0.65394531 -4.86742187 0.49539063 -4.05859375 0.33203125 C-2 0 -2 0 0 0 Z " fill="#6D23AC" transform="translate(253,349)"/>
<path d="M0 0 C0 0.99 0 1.98 0 3 C-0.99 3.495 -0.99 3.495 -2 4 C-1.67 4.33 -1.34 4.66 -1 5 C-0.54124748 10.27565392 -0.54124748 10.27565392 -2.1875 12.875 C-4.56036279 14.34781139 -6.25913944 14.22223194 -9 14 C-9 14.66 -9 15.32 -9 16 C-8.071875 15.938125 -7.14375 15.87625 -6.1875 15.8125 C-3 16 -3 16 -1.125 17.1875 C0.42229478 19.68036381 0.50405716 21.11967335 0 24 C-2.39081611 26.77334669 -3.899597 26.98943126 -7.5625 27.375 C-11 27 -11 27 -12.9375 25.625 C-14 24 -14 24 -14 22 C-11.03 22.33 -8.06 22.66 -5 23 C-5 22.01 -5 21.02 -5 20 C-7.31 19.67 -9.62 19.34 -12 19 C-12.82638376 16.10765685 -13 14.11257569 -13 11 C-13.061875 9.80375 -13.12375 8.6075 -13.1875 7.375 C-13.0946875 5.704375 -13.0946875 5.704375 -13 4 C-10.34531286 2.23020858 -8.92500069 1.57859829 -5.9375 0.875 C-5.24527344 0.70742188 -4.55304688 0.53984375 -3.83984375 0.3671875 C-2 0 -2 0 0 0 Z " fill="#7224B4" transform="translate(299,349)"/>
<path d="M0 0 C3.4375 0.5 3.4375 0.5 5.125 1.69140625 C7.78960245 5.36316499 7.0120557 10.18760439 6.4375 14.5 C4.8125 17.1875 4.8125 17.1875 2.4375 18.5 C-0.5625 19.0625 -0.5625 19.0625 -3.5625 18.5 C-6.05619699 16.40004464 -7.30595547 14.79842946 -7.9453125 11.5625 C-8.15377287 7.89359754 -7.71940079 5.80124951 -6 2.5 C-3.5625 0.5 -3.5625 0.5 0 0 Z " fill="#7224B4" transform="translate(358.5625,350.5)"/>
<path d="M0 0 C1.32 0 2.64 0 4 0 C4.66 3.63 5.32 7.26 6 11 C6.66 7.37 7.32 3.74 8 0 C9.32 0 10.64 0 12 0 C12.66 3.63 13.32 7.26 14 11 C14.66 7.37 15.32 3.74 16 0 C17.32 0 18.64 0 20 0 C19.69112547 2.43800966 19.37805338 4.87535367 19.0625 7.3125 C18.97548828 8.00279297 18.88847656 8.69308594 18.79882812 9.40429688 C18.40789865 12.40142288 17.9584996 15.12450119 17 18 C15.35 18 13.7 18 12 18 C11.67 15.03 11.34 12.06 11 9 C10.34 9 9.68 9 9 9 C8.67 11.97 8.34 14.94 8 18 C6.35 18 4.7 18 3 18 C2.49645133 15.56318413 1.99703244 13.12564561 1.5 10.6875 C1.35691406 9.99720703 1.21382813 9.30691406 1.06640625 8.59570312 C0.47374956 5.67475227 0 2.98891878 0 0 Z " fill="#7424B7" transform="translate(64,351)"/>
<path d="M0 0 C1.65 0 3.3 0 5 0 C5.33 2.31 5.66 4.62 6 7 C6.78375 6.95875 7.5675 6.9175 8.375 6.875 C11 7 11 7 13 9 C13.14507695 11.74485593 13.18652423 14.38480543 13.125 17.125 C13.11597656 17.87910156 13.10695313 18.63320313 13.09765625 19.41015625 C13.0740687 21.27357254 13.03819719 23.13682593 13 25 C11.68 25 10.36 25 9 25 C9 20.05 9 15.1 9 10 C8.01 10.33 7.02 10.66 6 11 C5.67 15.62 5.34 20.24 5 25 C3.35 25 1.7 25 0 25 C0 16.75 0 8.5 0 0 Z " fill="#6A22A6" transform="translate(86,344)"/>
<path d="M0 0 C1.32 0 2.64 0 4 0 C4.33 2.64 4.66 5.28 5 8 C5.33 7.67 5.66 7.34 6 7 C8.4375 6.8125 8.4375 6.8125 11 7 C13 9 13 9 13.1953125 12.6953125 C13.182009 14.17200108 13.15814835 15.64862358 13.125 17.125 C13.11597656 17.87910156 13.10695312 18.63320313 13.09765625 19.41015625 C13.0740687 21.27357254 13.03819719 23.13682593 13 25 C11.35 25 9.7 25 8 25 C8 20.05 8 15.1 8 10 C7.01 10.66 6.02 11.32 5 12 C4.41407366 15.11610554 4.41407366 15.11610554 4.3125 18.625 C4.24675781 19.81351562 4.18101562 21.00203125 4.11328125 22.2265625 C4.07589844 23.14179688 4.03851563 24.05703125 4 25 C2.68 25 1.36 25 0 25 C0 16.75 0 8.5 0 0 Z " fill="#7524B9" transform="translate(162,344)"/>
<path d="M0 0 C1.45742463 -0.08096803 2.91612807 -0.13917774 4.375 -0.1875 C5.18710937 -0.22230469 5.99921875 -0.25710938 6.8359375 -0.29296875 C7.55007813 -0.19628906 8.26421875 -0.09960938 9 0 C11.45391569 3.68087353 11.22802759 6.44355588 11.125 10.6875 C11.11597656 11.38939453 11.10695313 12.09128906 11.09765625 12.81445312 C11.07413704 14.54311525 11.03826713 16.27160145 11 18 C10.360625 17.814375 9.72125 17.62875 9.0625 17.4375 C8.0415625 17.2209375 8.0415625 17.2209375 7 17 C6.67 17.33 6.34 17.66 6 18 C3.0625 18.25 3.0625 18.25 0 18 C-2.15502531 14.76746204 -2.46856135 13.74849077 -2 10 C-0.875 8.1875 -0.875 8.1875 1 7 C4.1875 6.8125 4.1875 6.8125 7 7 C6.67 6.01 6.34 5.02 6 4 C3.03 3.505 3.03 3.505 0 3 C0 2.01 0 1.02 0 0 Z " fill="#7224B3" transform="translate(272,351)"/>
<path d="M0 0 C2.475 0.495 2.475 0.495 5 1 C5.33 0.67 5.66 0.34 6 0 C8.4375 -0.1875 8.4375 -0.1875 11 0 C13 2 13 2 13.1953125 5.6953125 C13.182009 7.17200108 13.15814835 8.64862358 13.125 10.125 C13.11597656 10.87910156 13.10695312 11.63320313 13.09765625 12.41015625 C13.0740687 14.27357254 13.03819719 16.13682593 13 18 C11.35 18 9.7 18 8 18 C8 13.05 8 8.1 8 3 C7.01 3.66 6.02 4.32 5 5 C4.41407366 8.11610554 4.41407366 8.11610554 4.3125 11.625 C4.24675781 12.81351562 4.18101562 14.00203125 4.11328125 15.2265625 C4.07589844 16.14179688 4.03851563 17.05703125 4 18 C2.68 18 1.36 18 0 18 C0 12.06 0 6.12 0 0 Z " fill="#6822A2" transform="translate(224,351)"/>
<path d="M0 0 C1.9375 1.0625 1.9375 1.0625 3 3 C3.1875 6.6875 3.1875 6.6875 3 10 C0.03 10 -2.94 10 -6 10 C-5.34 11.32 -4.68 12.64 -4 14 C-2.02 14 -0.04 14 2 14 C1.67 15.32 1.34 16.64 1 18 C-1.85418754 18.2339498 -4.20342775 18.41921004 -7 18 C-9.94271357 15.14924622 -10.20611468 12.37382717 -10.375 8.4375 C-10.26062411 5.69247863 -10.00032837 4.00079194 -8.9375 1.4375 C-5.93408933 -0.79083695 -3.62113687 -0.45264211 0 0 Z " fill="#7224B4" transform="translate(112,351)"/>
<path d="M0 0 C1.45792884 -0.05399736 2.91642712 -0.09279177 4.375 -0.125 C5.18710938 -0.14820313 5.99921875 -0.17140625 6.8359375 -0.1953125 C9 0 9 0 11 2 C11.3063859 4.73434962 11.5113336 7.38279821 11.625 10.125 C11.66367188 10.87910156 11.70234375 11.63320313 11.7421875 12.41015625 C11.83651031 14.27303184 11.91934662 16.13648255 12 18 C11.195625 17.814375 10.39125 17.62875 9.5625 17.4375 C8.716875 17.293125 7.87125 17.14875 7 17 C6.67 17.33 6.34 17.66 6 18 C3.5625 18.1875 3.5625 18.1875 1 18 C-1 16 -1 16 -1.3125 13.0625 C-1 10 -1 10 0.1875 8.125 C2.56036279 6.65218861 4.25913944 6.77776806 7 7 C7 5.68 7 4.36 7 3 C4.69 3 2.38 3 0 3 C0 2.01 0 1.02 0 0 Z " fill="#7424B6" transform="translate(209,351)"/>
<path d="M0 0 C3.5 0.5 3.5 0.5 5.4375 2.125 C6.75066255 5.06030453 6.71691118 7.31863606 6.5 10.5 C3.53 10.5 0.56 10.5 -2.5 10.5 C-1.84 11.82 -1.18 13.14 -0.5 14.5 C1.15 14.5 2.8 14.5 4.5 14.5 C4.83 15.49 5.16 16.48 5.5 17.5 C2.4167365 19.04163175 -0.10878099 18.79747535 -3.5 18.5 C-5.5982941 16.39205857 -6.41699516 15.00779429 -6.8984375 12.0625 C-6.89070313 11.216875 -6.88296875 10.37125 -6.875 9.5 C-6.88273437 8.654375 -6.89046875 7.80875 -6.8984375 6.9375 C-6.14418512 2.32325014 -4.60158513 0.6573693 0 0 Z " fill="#7324B5" transform="translate(307.5,350.5)"/>
<path d="M0 0 C3.5 0.5 3.5 0.5 5.4375 2.125 C6.75066255 5.06030453 6.71691118 7.31863606 6.5 10.5 C3.53 10.5 0.56 10.5 -2.5 10.5 C-2.17 12.15 -1.84 13.8 -1.5 15.5 C0.48 15.17 2.46 14.84 4.5 14.5 C4.83 15.49 5.16 16.48 5.5 17.5 C2.4167365 19.04163175 -0.10878099 18.79747535 -3.5 18.5 C-5.5982941 16.39205857 -6.41699516 15.00779429 -6.8984375 12.0625 C-6.89070313 11.216875 -6.88296875 10.37125 -6.875 9.5 C-6.88273437 8.654375 -6.89046875 7.80875 -6.8984375 6.9375 C-6.14418512 2.32325014 -4.60158513 0.6573693 0 0 Z " fill="#7324B6" transform="translate(374.5,350.5)"/>
<path d="M0 0 C3.5 0.5 3.5 0.5 5.4375 2.125 C6.75066255 5.06030453 6.71691118 7.31863606 6.5 10.5 C3.53 10.5 0.56 10.5 -2.5 10.5 C-2.17 11.82 -1.84 13.14 -1.5 14.5 C0.48 14.5 2.46 14.5 4.5 14.5 C4.83 15.49 5.16 16.48 5.5 17.5 C2.4167365 19.04163175 -0.10878099 18.79747535 -3.5 18.5 C-5.5982941 16.39205857 -6.41699516 15.00779429 -6.8984375 12.0625 C-6.89070312 11.216875 -6.88296875 10.37125 -6.875 9.5 C-6.88273438 8.654375 -6.89046875 7.80875 -6.8984375 6.9375 C-6.14418512 2.32325014 -4.60158513 0.6573693 0 0 Z " fill="#7324B5" transform="translate(184.5,350.5)"/>
<path d="M0 0 C3.5 0.5 3.5 0.5 5.4375 2.125 C6.75066255 5.06030453 6.71691118 7.31863606 6.5 10.5 C3.53 10.5 0.56 10.5 -2.5 10.5 C-2.17 11.82 -1.84 13.14 -1.5 14.5 C0.48 14.5 2.46 14.5 4.5 14.5 C4.83 15.49 5.16 16.48 5.5 17.5 C2.4167365 19.04163175 -0.10878099 18.79747535 -3.5 18.5 C-5.5982941 16.39205857 -6.41699516 15.00779429 -6.8984375 12.0625 C-6.89070312 11.216875 -6.88296875 10.37125 -6.875 9.5 C-6.88273438 8.654375 -6.89046875 7.80875 -6.8984375 6.9375 C-6.14418512 2.32325014 -4.60158513 0.6573693 0 0 Z " fill="#7324B6" transform="translate(135.5,350.5)"/>
<path d="M0 0 C1.32 0 2.64 0 4 0 C4 4.95 4 9.9 4 15 C4.99 14.67 5.98 14.34 7 14 C7.33 9.38 7.66 4.76 8 0 C9.32 0 10.64 0 12 0 C12 5.94 12 11.88 12 18 C10.68 17.67 9.36 17.34 8 17 C7.67 17.33 7.34 17.66 7 18 C4.5625 18.25 4.5625 18.25 2 18 C-0.45391569 14.31912647 -0.22802759 11.55644412 -0.125 7.3125 C-0.11597656 6.61060547 -0.10695312 5.90871094 -0.09765625 5.18554688 C-0.07413704 3.45688475 -0.03826713 1.72839855 0 0 Z " fill="#7424B7" transform="translate(255,351)"/>
<path d="M0 0 C2.01822917 0.06510417 4.03645833 0.13020833 6.0546875 0.1953125 C6.0546875 1.5153125 6.0546875 2.8353125 6.0546875 4.1953125 C3.0846875 3.7003125 3.0846875 3.7003125 0.0546875 3.1953125 C0.0546875 4.1853125 0.0546875 5.1753125 0.0546875 6.1953125 C1.0034375 6.4634375 1.9521875 6.7315625 2.9296875 7.0078125 C6.0546875 8.1953125 6.0546875 8.1953125 8.0546875 11.1953125 C7.7305506 14.51771574 7.44692447 15.80307553 5.0546875 18.1953125 C-1.26789315 18.53402218 -1.26789315 18.53402218 -3.9453125 17.1953125 C-3.4503125 15.7103125 -3.4503125 15.7103125 -2.9453125 14.1953125 C-0.9653125 14.1953125 1.0146875 14.1953125 3.0546875 14.1953125 C3.0546875 13.5353125 3.0546875 12.8753125 3.0546875 12.1953125 C1.08746742 10.81407287 -0.91399578 9.48043124 -2.9453125 8.1953125 C-3.9453125 7.1953125 -3.9453125 7.1953125 -4.1328125 4.7578125 C-3.90410521 1.63214619 -3.25878946 0.3271877 0 0 Z " fill="#7124B2" transform="translate(386.9453125,350.8046875)"/>
<path d="M0 0 C1.9453125 -0.29296875 1.9453125 -0.29296875 4.125 -0.1875 C5.40375 -0.125625 6.6825 -0.06375 8 0 C8 1.32 8 2.64 8 4 C5.03 3.505 5.03 3.505 2 3 C2 3.99 2 4.98 2 6 C2.94875 6.268125 3.8975 6.53625 4.875 6.8125 C8 8 8 8 10 11 C9.6758631 14.32240324 9.39223697 15.60776303 7 18 C0.67741935 18.33870968 0.67741935 18.33870968 -2 17 C-1.505 15.515 -1.505 15.515 -1 14 C0.98 14 2.96 14 5 14 C5 13.34 5 12.68 5 12 C4.030625 11.401875 3.06125 10.80375 2.0625 10.1875 C-1 8 -1 8 -2 5.4375 C-2 3 -2 3 0 0 Z " fill="#7124B3" transform="translate(318,351)"/>
<path d="M0 0 C1.32 0 2.64 0 4 0 C4 1.32 4 2.64 4 4 C4.99 4 5.98 4 7 4 C7 4.99 7 5.98 7 7 C6.01 7 5.02 7 4 7 C4 10.96 4 14.92 4 19 C5.32 19.33 6.64 19.66 8 20 C7.67 20.66 7.34 21.32 7 22 C4.625 22.125 4.625 22.125 2 22 C0 20 0 20 -0.1953125 16.9609375 C-0.17210937 15.77757812 -0.14890625 14.59421875 -0.125 13.375 C-0.10695312 12.18648438 -0.08890625 10.99796875 -0.0703125 9.7734375 C-0.04710937 8.85820312 -0.02390625 7.94296875 0 7 C-0.66 7 -1.32 7 -2 7 C-2 6.01 -2 5.02 -2 4 C-1.34 4 -0.68 4 0 4 C0 2.68 0 1.36 0 0 Z " fill="#7825BE" transform="translate(152,347)"/>
<path d="M0 0 C1.32 0 2.64 0 4 0 C4 7.26 4 14.52 4 22 C4.99 22.33 5.98 22.66 7 23 C7 23.66 7 24.32 7 25 C4.625 25.125 4.625 25.125 2 25 C0 23 0 23 -0.22705078 20.66162109 C-0.21657715 19.70852051 -0.20610352 18.75541992 -0.1953125 17.7734375 C-0.18886719 16.7421875 -0.18242187 15.7109375 -0.17578125 14.6484375 C-0.15902344 13.56820313 -0.14226562 12.48796875 -0.125 11.375 C-0.11597656 10.28703125 -0.10695312 9.1990625 -0.09765625 8.078125 C-0.07403409 5.38519848 -0.04109556 2.69270745 0 0 Z " fill="#7124B2" transform="translate(200,344)"/>
<path d="M0 0 C-0.165 0.886875 -0.33 1.77375 -0.5 2.6875 C-1.09286617 5.88564414 -1.09286617 5.88564414 -0.875 8.6875 C-1 11 -1 11 -2.25 12.8125 C-4 14 -4 14 -8 14 C-9.9078584 10.8250906 -10.1609041 8.89414789 -9.625 5.25 C-9.51414062 4.45078125 -9.40328125 3.6515625 -9.2890625 2.828125 C-9.19367188 2.22484375 -9.09828125 1.6215625 -9 1 C-5.94152152 0.45627049 -3.11227195 0 0 0 Z " fill="#7124B2" transform="translate(350,349)"/>
<path d="M0 0 C3.61941735 1.50239966 6.7321794 2.82145293 10 5 C9.67 5.99 9.34 6.98 9 8 C7.63875 7.938125 7.63875 7.938125 6.25 7.875 C3.1217954 7.99531556 1.61385994 8.3914708 -1 10 C-1.66 9.34 -2.32 8.68 -3 8 C-5.58354218 7.83312552 -5.58354218 7.83312552 -8 8 C-8.33 6.35 -8.66 4.7 -9 3 C-6.03 3 -3.06 3 0 3 C0 2.01 0 1.02 0 0 Z " fill="#18121D" transform="translate(381,358)"/>
<path d="M0 0 C3.61941735 1.50239966 6.7321794 2.82145293 10 5 C9.67 5.99 9.34 6.98 9 8 C7.63875 7.938125 7.63875 7.938125 6.25 7.875 C3.1217954 7.99531556 1.61385994 8.3914708 -1 10 C-1.66 9.34 -2.32 8.68 -3 8 C-5.57061311 7.35232207 -5.57061311 7.35232207 -8 7 C-8.33 5.68 -8.66 4.36 -9 3 C-6.03 3 -3.06 3 0 3 C0 2.01 0 1.02 0 0 Z " fill="#18121C" transform="translate(314,358)"/>
<path d="M0 0 C2.475 0.495 2.475 0.495 5 1 C7.23167185 0.63143136 7.23167185 0.63143136 9 0 C9 1.32 9 2.64 9 4 C8.01 4.33 7.02 4.66 6 5 C4.71553081 7.56893838 4.67022856 9.76576337 4.4375 12.625 C4.31181641 14.12933594 4.31181641 14.12933594 4.18359375 15.6640625 C4.12300781 16.43492187 4.06242187 17.20578125 4 18 C2.68 18 1.36 18 0 18 C0 12.06 0 6.12 0 0 Z " fill="#7224B5" transform="translate(118,351)"/>
<path d="M0 0 C0.66 0.66 1.32 1.32 2 2 C3.155 2.165 4.31 2.33 5.5 2.5 C9 3 9 3 11 5 C11.375 7.4375 11.375 7.4375 11 10 C9.19838554 12.1769508 7.82520089 12.89562676 5.0234375 13.25 C2.875 13.3125 2.875 13.3125 -1 13 C-1.66 12.34 -2.32 11.68 -3 11 C-3 10.01 -3 9.02 -3 8 C-0.03 8.33 2.94 8.66 6 9 C6.33 8.01 6.66 7.02 7 6 C4.36 5.67 1.72 5.34 -1 5 C-1.33 3.68 -1.66 2.36 -2 1 C-1.34 0.67 -0.68 0.34 0 0 Z " fill="#7424B7" transform="translate(242,363)"/>
<path d="M0 0 C0 0.99 0 1.98 0 3 C-0.99 3.495 -0.99 3.495 -2 4 C-1.67 4.33 -1.34 4.66 -1 5 C-0.54124748 10.27565392 -0.54124748 10.27565392 -2.1875 12.875 C-4 14 -4 14 -9 14 C-9 10.37 -9 6.74 -9 3 C-2.25 0 -2.25 0 0 0 Z " fill="#7324B5" transform="translate(299,349)"/>
<path d="M0 0 C0.33 0 0.66 0 1 0 C1.33 2.31 1.66 4.62 2 7 C2.78375 6.95875 3.5675 6.9175 4.375 6.875 C7 7 7 7 9 9 C9.14507695 11.74485593 9.18652423 14.38480543 9.125 17.125 C9.11597656 17.87910156 9.10695313 18.63320313 9.09765625 19.41015625 C9.0740687 21.27357254 9.03819719 23.13682593 9 25 C7.68 25 6.36 25 5 25 C5 20.05 5 15.1 5 10 C3.68 10.33 2.36 10.66 1 11 C-0.20272819 8.59454362 -0.10071472 7.05003047 -0.0625 4.375 C-0.05347656 3.55773437 -0.04445313 2.74046875 -0.03515625 1.8984375 C-0.02355469 1.27195312 -0.01195313 0.64546875 0 0 Z " fill="#7024B1" transform="translate(90,344)"/>
<path d="M0 0 C3.69230769 0.69230769 3.69230769 0.69230769 5 2 C5.07319621 4.69654854 5.09242537 7.36691458 5.0625 10.0625 C5.05798828 10.82111328 5.05347656 11.57972656 5.04882812 12.36132812 C5.0370068 14.24091871 5.01907078 16.12046899 5 18 C3.35 18 1.7 18 0 18 C-0.19384179 15.18780295 -0.38036603 12.37545804 -0.5625 9.5625 C-0.61857422 8.76005859 -0.67464844 7.95761719 -0.73242188 7.13085938 C-0.8616295 5.08937889 -0.9351273 3.04453631 -1 1 C-0.67 0.67 -0.34 0.34 0 0 Z " fill="#6722A2" transform="translate(170,351)"/>
<path d="M0 0 C1.9375 0.75 1.9375 0.75 3.9375 1.75 C3.9375 4.41666667 3.9375 7.08333333 3.9375 9.75 C2.9375 10.75 2.9375 10.75 0 11 C-1.010625 10.9175 -2.02125 10.835 -3.0625 10.75 C-5.21752531 7.51746204 -5.53106135 6.49849077 -5.0625 2.75 C-3.47961664 0.37567497 -2.89043192 -0.35035538 0 0 Z " fill="#6C23A9" transform="translate(275.0625,358.25)"/>
<path d="M0 0 C2.475 0.495 2.475 0.495 5 1 C5.99 1 6.98 1 8 1 C8 1.66 8 2.32 8 3 C7.01 3.66 6.02 4.32 5 5 C4.41407366 8.11610554 4.41407366 8.11610554 4.3125 11.625 C4.24675781 12.81351562 4.18101562 14.00203125 4.11328125 15.2265625 C4.07589844 16.14179688 4.03851563 17.05703125 4 18 C2.68 18 1.36 18 0 18 C0 12.06 0 6.12 0 0 Z " fill="#7424B8" transform="translate(224,351)"/>
<path d="M0 0 C-0.08723378 1.77174819 -0.19541655 3.54247377 -0.3125 5.3125 C-0.37050781 6.29863281 -0.42851562 7.28476562 -0.48828125 8.30078125 C-1 11 -1 11 -2.29296875 12.85546875 C-4 14 -4 14 -8 14 C-8 13.34 -8 12.68 -8 12 C-7.34 12 -6.68 12 -6 12 C-5.74984127 8.58357241 -5.74984127 8.58357241 -6 5 C-6.99 4.34 -7.98 3.68 -9 3 C-2.25 0 -2.25 0 0 0 Z " fill="#7124B2" transform="translate(253,349)"/>
<path d="M0 0 C2.0625 0.4375 2.0625 0.4375 4 1 C4.0270043 2.45823212 4.04639787 3.91660675 4.0625 5.375 C4.07410156 6.18710937 4.08570313 6.99921875 4.09765625 7.8359375 C4 10 4 10 3 12 C1.68 11.67 0.36 11.34 -1 11 C-1.02688151 9.35425434 -1.04634123 7.70838587 -1.0625 6.0625 C-1.07410156 5.14597656 -1.08570313 4.22945313 -1.09765625 3.28515625 C-1 1 -1 1 0 0 Z " fill="#131116" transform="translate(357,354)"/>
<path d="M0 0 C0.99 0.33 1.98 0.66 3 1 C2.34 3.31 1.68 5.62 1 8 C1.99 8.33 2.98 8.66 4 9 C4 9.66 4 10.32 4 11 C1.625 11.125 1.625 11.125 -1 11 C-3 9 -3 9 -3.3125 6.0625 C-3 3 -3 3 -1.5 1.125 C-1.005 0.75375 -0.51 0.3825 0 0 Z " fill="#7424B7" transform="translate(211,358)"/>
<path d="M0 0 C0.99 0.33 1.98 0.66 3 1 C2.814375 2.0725 2.62875 3.145 2.4375 4.25 C2.0695432 7.40391546 1.95534657 9.09818492 3 12 C-1.875 10.125 -1.875 10.125 -3 9 C-3.47058824 3.58823529 -3.47058824 3.58823529 -1.5 1.125 C-1.005 0.75375 -0.51 0.3825 0 0 Z " fill="#7324B5" transform="translate(339,351)"/>
<path d="M0 0 C0.5625 1.9375 0.5625 1.9375 1 4 C0 5 0 5 -2.3125 5.25 C-5.44076838 4.95899829 -6.68677733 4.05619793 -9 2 C-5.5647952 -0.29013653 -4.014669 -0.17842973 0 0 Z " fill="#23142F" transform="translate(294,368)"/>
<path d="M0 0 C4.455 0.99 4.455 0.99 9 2 C8.67 2.99 8.34 3.98 8 5 C5.125 5.125 5.125 5.125 2 5 C1.34 4.34 0.68 3.68 0 3 C0 2.01 0 1.02 0 0 Z " fill="#7324B6" transform="translate(336,371)"/>
<path d="M0 0 C0 1.32 0 2.64 0 4 C-3.62528568 4.20140476 -5.86501708 3.85776765 -9 2 C-9.33 2.66 -9.66 3.32 -10 4 C-10 3.01 -10 2.02 -10 1 C-6.61981469 -0.04005702 -3.5219721 -0.08004482 0 0 Z " fill="#1C1324" transform="translate(345,369)"/>
<path d="M0 0 C2.31 0.33 4.62 0.66 7 1 C6.67 2.32 6.34 3.64 6 5 C4.35 5 2.7 5 1 5 C0.67 3.35 0.34 1.7 0 0 Z " fill="#1E1327" transform="translate(242,368)"/>
<path d="M0 0 C1.32 0 2.64 0 4 0 C4 1.65 4 3.3 4 5 C2.68 5.33 1.36 5.66 0 6 C-0.38218767 4.34385343 -0.71395102 2.67542976 -1 1 C-0.67 0.67 -0.34 0.34 0 0 Z " fill="#1B1322" transform="translate(244,354)"/>
<path d="M0 0 C1.32 0 2.64 0 4 0 C4 1.32 4 2.64 4 4 C3.34 4 2.68 4 2 4 C1.87625 4.639375 1.7525 5.27875 1.625 5.9375 C1.41875 6.618125 1.2125 7.29875 1 8 C0.01 8.495 0.01 8.495 -1 9 C-0.67 6.03 -0.34 3.06 0 0 Z " fill="#6922A4" transform="translate(71,356)"/>
<path d="M0 0 C1.98 0.495 1.98 0.495 4 1 C3.67 2.65 3.34 4.3 3 6 C1.68 5.67 0.36 5.34 -1 5 C-0.67 3.35 -0.34 1.7 0 0 Z " fill="#1A1220" transform="translate(341,354)"/>
<path d="M0 0 C1.32 0 2.64 0 4 0 C4 1.98 4 3.96 4 6 C2.68 6 1.36 6 0 6 C0 4.02 0 2.04 0 0 Z " fill="#151118" transform="translate(290,354)"/>
<path d="M0 0 C-0.33 1.32 -0.66 2.64 -1 4 C-1.99 4 -2.98 4 -4 4 C-4 3.34 -4 2.68 -4 2 C-5.65 2 -7.3 2 -9 2 C-9 1.67 -9 1.34 -9 1 C-5.94152152 0.45627049 -3.11227195 0 0 0 Z " fill="#561E86" transform="translate(350,349)"/>
<path d="M0 0 C0.99 0 1.98 0 3 0 C3 1.65 3 3.3 3 5 C1.68 5 0.36 5 -1 5 C-0.67 3.35 -0.34 1.7 0 0 Z " fill="#151218" transform="translate(213,361)"/>
<path d="M0 0 C0.99 0 1.98 0 3 0 C3 1.65 3 3.3 3 5 C1.68 4.67 0.36 4.34 -1 4 C-0.67 2.68 -0.34 1.36 0 0 Z " fill="#19121F" transform="translate(275,361)"/>
<path d="M0 0 C1.98 0.495 1.98 0.495 4 1 C4 1.99 4 2.98 4 4 C2.35 4 0.7 4 -1 4 C-0.67 2.68 -0.34 1.36 0 0 Z " fill="#141116" transform="translate(373,354)"/>
<path d="M0 0 C1.98 0.495 1.98 0.495 4 1 C4 1.99 4 2.98 4 4 C2.35 4 0.7 4 -1 4 C-0.67 2.68 -0.34 1.36 0 0 Z " fill="#141116" transform="translate(306,354)"/>
<path d="M0 0 C1.98 0.495 1.98 0.495 4 1 C4 1.99 4 2.98 4 4 C2.35 4 0.7 4 -1 4 C-0.67 2.68 -0.34 1.36 0 0 Z " fill="#161119" transform="translate(183,354)"/>
<path d="M0 0 C1.98 0.495 1.98 0.495 4 1 C4 1.99 4 2.98 4 4 C2.35 4 0.7 4 -1 4 C-0.67 2.68 -0.34 1.36 0 0 Z " fill="#161119" transform="translate(134,354)"/>
<path d="M0 0 C1.98 0.495 1.98 0.495 4 1 C4 1.99 4 2.98 4 4 C2.35 4 0.7 4 -1 4 C-0.67 2.68 -0.34 1.36 0 0 Z " fill="#151118" transform="translate(107,354)"/>
</svg>
